                                                                        S      1
,,9Htestpoint,9Htestpoint,7Hunknown,7Hunknown,32,38,7,99,15,,1.,2,2HMM, G      1
1,0.08,15H20150607.144402,0.01,10000.,7Hunknown,7Hunknown,11,0,;        G      2
     186       1                                                00000000D      1
     186             -63       1       0                               0D      2
     514       2                                                00010000D      3
     514                       1       1                               0D      4
     510       3                                                00010000D      5
     510             -63       1       1                               0D      6
     510       4                                                00010000D      7
     510             -63       1       1                               0D      8
     510       5                                                00010000D      9
     510             -63       1       1                               0D     10
     510       6                                                00010000D     11
     510             -63       1       1                               0D     12
     510       7                                                00010000D     13
     510             -63       1       1                               0D     14
     508       8                                                00010000D     15
     508                       2       1                               0D     16
     508      10                                                00010000D     17
     508                       1       1                               0D     18
     508      11                                                00010000D     19
     508                       2       1                               0D     20
     508      13                                                00010000D     21
     508                       1       1                               0D     22
     508      14                                                00010000D     23
     508                       2       1                               0D     24
     126      16                                                00010000D     25
     126       0               9       0                               0D     26
     126      25                                                00010000D     27
     126       0               2       0                               0D     28
     126      27                                                00010000D     29
     126       0               7       0                               0D     30
     126      34                                                00010000D     31
     126       0               5       0                               0D     32
     126      39                                                00010000D     33
     126       0               5       0                               0D     34
     126      44                                                00010000D     35
     126       0               9       0                               0D     36
     126      53                                                00010000D     37
     126       0               3       0                               0D     38
     126      56                                                00010000D     39
     126       0               6       0                               0D     40
     126      62                                                00010000D     41
     126       0               6       0                               0D     42
     126      68                                                00010000D     43
     126       0               9       0                               0D     44
     126      77                                                00010000D     45
     126       0               7       0                               0D     46
     128      84                                                00010000D     47
     128       0     -63      12       0                               0D     48
     128      96                                                00010000D     49
     128       0     -63       3       0                               0D     50
     128      99                                                00010000D     51
     128       0     -63      17       0                               0D     52
     128     116                                                00010000D     53
     128       0     -63       3       0                               0D     54
     128     119                                                00010000D     55
     128       0     -63      33       0                               0D     56
     502     152                                                00010000D     57
     502                       4       1                               0D     58
     504     156                                                00010001D     59
     504                       3       1                               0D     60
     406     159                                                00000000D     61
     406                       1      15                               0D     62
     314     160                                                00000200D     63
     314                       2       0                               0D     64
     314     162                                                00000200D     65
     314                       2       0                               0D     66
186,3,1,0,0,1,61;                                                      1P      1
514,5,5,1,7,1,9,1,11,1,13,1;                                           3P      2
510,47,1,1,15;                                                         5P      3
510,49,1,1,17;                                                         7P      4
510,51,1,1,19;                                                         9P      5
510,53,1,1,21;                                                        11P      6
510,55,1,1,23;                                                        13P      7
508,6,0,59,1,0,0,0,59,2,1,0,0,59,3,0,0,0,59,4,0,0,0,59,5,0,0,0,       15P      8
59,2,0,0;                                                             15P      9
508,1,0,59,1,1,0;                                                     17P     10
508,6,0,59,6,0,0,0,59,7,1,0,0,59,8,1,0,0,59,9,1,0,0,59,10,1,0,0,      19P     11
59,7,0,0;                                                             19P     12
508,1,0,59,6,1,0;                                                     21P     13
508,8,0,59,9,0,0,0,59,8,0,0,0,59,10,0,0,0,59,11,1,0,0,59,3,1,0,       23P     14
0,59,5,1,0,0,59,4,1,0,0,59,11,0,0;                                    23P     15
126,8,2,0,1,0,0,-3.14159265358979,-3.14159265358979,                  25P     16
-3.14159265358979,-1.5707963267949,-1.5707963267949,0.,0.,            25P     17
1.5707963267949,1.5707963267949,3.14159265358979,                     25P     18
3.14159265358979,3.14159265358979,1.,0.707106781186555,1.,            25P     19
0.707106781186554,1.,0.707106781186554,1.,0.707106781186555,1.,       25P     20
-2.55,-1.,-6.12323399573677D-18,-2.55,-1.,-0.05,-2.5,-1.,-0.05,       25P     21
-2.45,-1.,-0.05,-2.45,-1.,0.,-2.45,-1.,0.05,-2.5,-1.,0.05,-2.55,      25P     22
-1.,0.05,-2.55,-1.,6.12323399573677D-18,-3.14159265358979,            25P     23
3.14159265358979,0.,0.,0.;                                            25P     24
126,1,1,0,0,1,0,-20.,-20.,0.,0.,1.,1.,-2.55,-1.,0.,-2.55,0.,0.,       27P     25
-20.,0.,0.,0.,0.;                                                     27P     26
126,4,2,0,0,0,0,-6.28318530717959,-6.28318530717959,                  29P     27
-6.28318530717959,-4.71238898038469,-4.71238898038469,                29P     28
-3.14159265358979,-3.14159265358979,-3.14159265358979,1.,             29P     29
0.707106781186555,1.,0.707106781186555,1.,-2.45,0.,                   29P     30
-1.22464679914735D-17,-2.45,0.,-0.0500000000000001,-2.5,0.,           29P     31
-0.05,-2.55,0.,-0.05,-2.55,0.,6.12323399573677D-18,                   29P     32
-6.28318530717959,-3.14159265358979,0.,0.,0.;                         29P     33
126,2,2,0,0,0,0,-7.85398163397448,-7.85398163397448,                  31P     34
-7.85398163397448,-6.28318530717959,-6.28318530717959,                31P     35
-6.28318530717959,1.,0.707106781186555,1.,-2.5,0.,0.05,-2.45,0.,      31P     36
0.05,-2.45,0.,-1.22464679914735D-17,-7.85398163397448,                31P     37
-6.28318530717959,0.,0.,0.;                                           31P     38
126,2,2,0,0,0,0,-3.14159265358979,-3.14159265358979,                  33P     39
-3.14159265358979,-1.5707963267949,-1.5707963267949,                  33P     40
-1.5707963267949,1.,0.707106781186555,1.,-2.55,0.,                    33P     41
6.12323399573677D-18,-2.55,0.,0.05,-2.5,0.,0.05,                      33P     42
-3.14159265358979,-1.5707963267949,0.,0.,0.;                          33P     43
126,8,2,0,1,0,0,-3.14159265358979,-3.14159265358979,                  35P     44
-3.14159265358979,-1.5707963267949,-1.5707963267949,0.,0.,            35P     45
1.5707963267949,1.5707963267949,3.14159265358979,                     35P     46
3.14159265358979,3.14159265358979,1.,0.707106781186555,1.,            35P     47
0.707106781186554,1.,0.707106781186554,1.,0.707106781186555,1.,       35P     48
2.55,-1.,6.12323399573677D-18,2.55,-1.,0.05,2.5,-1.,0.05,2.45,        35P     49
-1.,0.05,2.45,-1.,0.,2.45,-1.,-0.05,2.5,-1.,-0.05,2.55,-1.,           35P     50
-0.05,2.55,-1.,-6.12323399573677D-18,-3.14159265358979,               35P     51
3.14159265358979,0.,0.,0.;                                            35P     52
126,1,1,0,0,1,0,-20.,-20.,1.22464679914735D-16,                       37P     53
1.22464679914735D-16,1.,1.,2.55,-1.,0.,2.55,                          37P     54
3.12284933782575D-16,0.,-20.,1.22464679914735D-16,0.,0.,0.;           37P     55
126,2,2,0,0,0,0,-3.14159265358979,-3.14159265358979,                  39P     56
-3.14159265358979,-1.5707963267949,-1.5707963267949,                  39P     57
-1.5707963267949,1.,0.707106781186555,1.,2.55,                        39P     58
3.12284933782575D-16,6.12323399573677D-18,2.55,                       39P     59
3.12284933782575D-16,0.05,2.5,3.06161699786838D-16,0.05,              39P     60
-3.14159265358979,-1.5707963267949,0.,0.,0.;                          39P     61
126,2,2,0,0,0,0,-7.85398163397448,-7.85398163397448,                  41P     62
-7.85398163397448,-6.28318530717959,-6.28318530717959,                41P     63
-6.28318530717959,1.,0.707106781186555,1.,2.5,                        41P     64
3.06161699786838D-16,0.05,2.45,3.00038465791102D-16,0.05,2.45,        41P     65
3.00038465791102D-16,-1.22464679914735D-17,-7.85398163397448,         41P     66
-6.28318530717959,0.,0.,0.;                                           41P     67
126,4,2,0,0,0,0,-6.28318530717959,-6.28318530717959,                  43P     68
-6.28318530717959,-4.71238898038469,-4.71238898038469,                43P     69
-3.14159265358979,-3.14159265358979,-3.14159265358979,1.,             43P     70
0.707106781186555,1.,0.707106781186555,1.,2.45,                       43P     71
3.00038465791102D-16,-1.22464679914735D-17,2.45,                      43P     72
3.00038465791102D-16,-0.0500000000000001,2.5,                         43P     73
3.06161699786838D-16,-0.05,2.55,3.12284933782575D-16,-0.05,2.55,      43P     74
3.12284933782575D-16,6.12323399573677D-18,-6.28318530717959,          43P     75
-3.14159265358979,0.,0.,0.;                                           43P     76
126,4,2,0,0,0,0,-3.14159265358979,-3.14159265358979,                  45P     77
-3.14159265358979,-1.5707963267949,-1.5707963267949,0.,0.,0.,1.,      45P     78
0.707106781186548,1.,0.707106781186548,1.,2.45,0.,                    45P     79
6.12323399573677D-18,2.45,2.45,6.12323399573677D-18,                  45P     80
-1.43029718152746D-17,2.45,6.12323399573677D-18,-2.45,2.45,           45P     81
6.12323399573677D-18,-2.45,0.,6.12323399573677D-18,                   45P     82
-3.14159265358979,0.,0.,0.,0.;                                        45P     83
128,1,8,1,2,0,1,0,0,1,0.,0.,20.,20.,-3.14159265358979,                47P     84
-3.14159265358979,-3.14159265358979,-1.5707963267949,                 47P     85
-1.5707963267949,0.,0.,1.5707963267949,1.5707963267949,               47P     86
3.14159265358979,3.14159265358979,3.14159265358979,1.,1.,             47P     87
0.707106781186548,0.707106781186548,1.,1.,0.707106781186548,          47P     88
0.707106781186548,1.,1.,0.707106781186548,0.707106781186548,1.,       47P     89
1.,0.707106781186548,0.707106781186548,1.,1.,-2.55,-1.,0.,-2.55,      47P     90
0.,0.,-2.55,-1.,-0.05,-2.55,0.,-0.05,-2.5,-1.,-0.05,-2.5,0.,          47P     91
-0.05,-2.45,-1.,-0.05,-2.45,0.,-0.05,-2.45,-1.,0.,-2.45,0.,0.,        47P     92
-2.45,-1.,0.05,-2.45,0.,0.05,-2.5,-1.,0.05,-2.5,0.,0.05,-2.55,        47P     93
-1.,0.05,-2.55,0.,0.05,-2.55,-1.,0.,-2.55,0.,0.,0.,20.,               47P     94
-3.14159265358979,3.14159265358979;                                   47P     95
128,1,1,1,1,0,0,1,0,0,-0.005,-0.005,0.005,0.005,-0.005,-0.005,        49P     96
0.005,0.005,1.,1.,1.,1.,-2.45,-1.,0.05,-2.55,-1.,0.05,-2.45,-1.,      49P     97
-0.05,-2.55,-1.,-0.05,-0.005,0.005,-0.005,0.005;                      49P     98
128,1,8,1,2,0,1,0,0,1,-1.22464679914735D-16,                          51P     99
-1.22464679914735D-16,20.,20.,-3.14159265358979,                      51P    100
-3.14159265358979,-3.14159265358979,-1.5707963267949,                 51P    101
-1.5707963267949,0.,0.,1.5707963267949,1.5707963267949,               51P    102
3.14159265358979,3.14159265358979,3.14159265358979,1.,1.,             51P    103
0.707106781186548,0.707106781186548,1.,1.,0.707106781186548,          51P    104
0.707106781186548,1.,1.,0.707106781186548,0.707106781186548,1.,       51P    105
1.,0.707106781186548,0.707106781186548,1.,1.,2.55,-1.,0.,2.55,        51P    106
3.12284933782575D-16,0.,2.55,-1.,0.05,2.55,3.12284933782575D-16,      51P    107
0.05,2.5,-1.,0.05,2.5,3.12284933782575D-16,0.05,2.45,-1.,0.05,        51P    108
2.45,3.12284933782575D-16,0.05,2.45,-1.,0.,2.45,                      51P    109
3.12284933782575D-16,0.,2.45,-1.,-0.05,2.45,                          51P    110
3.12284933782575D-16,-0.05,2.5,-1.,-0.05,2.5,                         51P    111
3.12284933782575D-16,-0.05,2.55,-1.,-0.05,2.55,                       51P    112
3.12284933782575D-16,-0.05,2.55,-1.,0.,2.55,                          51P    113
3.12284933782575D-16,0.,-1.22464679914735D-16,20.,                    51P    114
-3.14159265358979,3.14159265358979;                                   51P    115
128,1,1,1,1,0,0,1,0,0,-0.005,-0.005,0.005,0.005,-0.005,-0.005,        53P    116
0.005,0.005,1.,1.,1.,1.,2.55,-1.,0.05,2.45,-1.,0.05,2.55,-1.,         53P    117
-0.05,2.45,-1.,-0.05,-0.005,0.005,-0.005,0.005;                       53P    118
128,8,4,2,2,1,0,0,1,0,-3.14159265358979,-3.14159265358979,            55P    119
-3.14159265358979,-1.5707963267949,-1.5707963267949,0.,0.,            55P    120
1.5707963267949,1.5707963267949,3.14159265358979,                     55P    121
3.14159265358979,3.14159265358979,0.,0.,0.,1.5707963267949,           55P    122
1.5707963267949,3.14159265358979,3.14159265358979,                    55P    123
3.14159265358979,1.,0.707106781186555,1.,0.707106781186554,1.,        55P    124
0.707106781186554,1.,0.707106781186555,1.,0.707106781186548,          55P    125
0.500000000000005,0.707106781186548,0.500000000000005,                55P    126
0.707106781186548,0.500000000000005,0.707106781186548,                55P    127
0.500000000000005,0.707106781186548,1.,0.707106781186555,1.,          55P    128
0.707106781186554,1.,0.707106781186554,1.,0.707106781186555,1.,       55P    129
0.707106781186548,0.500000000000005,0.707106781186548,                55P    130
0.500000000000005,0.707106781186548,0.500000000000005,                55P    131
0.707106781186548,0.500000000000005,0.707106781186548,1.,             55P    132
0.707106781186555,1.,0.707106781186554,1.,0.707106781186554,1.,       55P    133
0.707106781186555,1.,-2.45,0.,-6.12323399573677D-18,-2.45,0.,         55P    134
-0.05,-2.5,0.,-0.05,-2.55,0.,-0.05,-2.55,0.,0.,-2.55,0.,0.05,         55P    135
-2.5,0.,0.05,-2.45,0.,0.05,-2.45,0.,6.12323399573677D-18,-2.45,       55P    136
2.45,-6.12323399573677D-18,-2.45,2.45,-0.05,-2.5,2.5,-0.05,           55P    137
-2.55,2.55,-0.05,-2.55,2.55,0.,-2.55,2.55,0.05,-2.5,2.5,0.05,         55P    138
-2.45,2.45,0.05,-2.45,2.45,6.12323399573677D-18,                      55P    139
-1.43029718152746D-17,2.45,-6.12323399573677D-18,                     55P    140
-1.43029718152746D-17,2.45,-0.05,-1.43029718152746D-17,2.5,           55P    141
-0.05,-1.43029718152746D-17,2.55,-0.05,-1.43029718152746D-17,         55P    142
2.55,0.,-1.43029718152746D-17,2.55,0.05,-1.43029718152746D-17,        55P    143
2.5,0.05,-1.43029718152746D-17,2.45,0.05,-1.43029718152746D-17,       55P    144
2.45,6.12323399573677D-18,2.45,2.45,-6.12323399573677D-18,2.45,       55P    145
2.45,-0.05,2.5,2.5,-0.05,2.55,2.55,-0.05,2.55,2.55,0.,2.55,2.55,      55P    146
0.05,2.5,2.5,0.05,2.45,2.45,0.05,2.45,2.45,6.12323399573677D-18,      55P    147
2.45,0.,-6.12323399573677D-18,2.45,0.,-0.05,2.5,0.,-0.05,2.55,        55P    148
0.,-0.05,2.55,0.,0.,2.55,0.,0.05,2.5,0.,0.05,2.45,0.,0.05,2.45,       55P    149
0.,6.12323399573677D-18,-3.14159265358979,3.14159265358979,0.,        55P    150
3.14159265358979;                                                     55P    151
502,8,-2.55,-1.,6.12323399573677D-18,-2.55,0.,0.,-2.45,0.,            57P    152
6.12323399573677D-18,-2.5,0.,0.05,2.55,-1.,6.12323399573677D-18,      57P    153
2.55,3.12284933782575D-16,0.,2.5,3.06161699786838D-16,0.05,2.45,      57P    154
0.,6.12323399573677D-18;                                              57P    155
504,11,25,57,1,57,1,27,57,1,57,2,29,57,3,57,2,31,57,4,57,3,33,        59P    156
57,2,57,4,35,57,5,57,5,37,57,5,57,6,39,57,6,57,7,41,57,7,57,8,        59P    157
43,57,8,57,6,45,57,8,57,3;                                            59P    158
406,1,5HBody1;                                                        61P    159
314,96.078431372549,96.078431372549,96.4705882352941,19HAluminum      63P    160
 - Polished;                                                          63P    161
314,62.7450980392157,62.7450980392157,62.7450980392157,13HSteel       65P    162
- Satin;                                                              65P    163
S      1G      2D     66P    163                                        T      1
